#define help_width 240
#define help_height 80
static char help_bits[] = {
  0xd1, 0x8b, 0x80, 0x00, 0x09, 0x40, 0x20, 0x08, 0x00, 0x00, 0x10, 0x01, 
  0x12, 0x80, 0x40, 0x10, 0x00, 0x00, 0x00, 0x00, 0x00, 0x00, 0x00, 0x00, 
  0x00, 0x00, 0x00, 0x30, 0x00, 0x00, 0x51, 0xa8, 0x88, 0x80, 0x08, 0x01, 
  0x20, 0x48, 0x00, 0x00, 0x10, 0x01, 0x11, 0x02, 0x40, 0x10, 0x00, 0x00, 
  0x00, 0x00, 0x00, 0x00, 0x00, 0x00, 0x00, 0x00, 0x00, 0xfc, 0x00, 0x00, 
  0x53, 0xa8, 0x88, 0xcc, 0x1d, 0x55, 0xee, 0x1c, 0x44, 0xa6, 0x1c, 0x99, 
  0x3b, 0xaa, 0xdc, 0x39, 0x00, 0x00, 0x00, 0x00, 0x00, 0x00, 0x00, 0x00, 
  0x00, 0x00, 0x00, 0x9e, 0x01, 0x0f, 0xd5, 0xa9, 0xbe, 0x92, 0x88, 0x4c, 
  0x29, 0x09, 0x54, 0x69, 0x12, 0x25, 0x11, 0x99, 0x52, 0x12, 0x00, 0x00, 
  0x00, 0x00, 0x00, 0x00, 0x00, 0x00, 0x00, 0x00, 0x00, 0x8f, 0x81, 0x10, 
  0x59, 0x50, 0x88, 0x9e, 0x88, 0x44, 0x29, 0x09, 0x54, 0x29, 0x12, 0x3d, 
  0x11, 0x89, 0x52, 0x12, 0x00, 0x00, 0x00, 0x00, 0x00, 0x00, 0x00, 0x00, 
  0x00, 0x00, 0x80, 0x0f, 0x43, 0x20, 0x51, 0x50, 0x88, 0x82, 0x48, 0x44, 
  0x2e, 0x49, 0x28, 0x29, 0x12, 0x05, 0x91, 0x88, 0x5c, 0x12, 0x00, 0x00, 
  0x00, 0x00, 0x00, 0x00, 0x00, 0x00, 0x00, 0x00, 0xc0, 0x99, 0x23, 0x4f, 
  0xd1, 0x53, 0x80, 0x8c, 0x50, 0x44, 0x28, 0x11, 0x28, 0x26, 0x1c, 0x19, 
  0xa1, 0x88, 0x50, 0x22, 0x00, 0x00, 0x00, 0x00, 0x00, 0x00, 0x00, 0x00, 
  0x00, 0x00, 0xe0, 0xb8, 0xa1, 0x50, 0x00, 0x00, 0x00, 0x00, 0x00, 0x00, 
  0x06, 0x00, 0x00, 0x00, 0x00, 0x00, 0x00, 0x00, 0x0c, 0x00, 0x00, 0x00, 
  0x00, 0x00, 0x00, 0x00, 0x00, 0x00, 0x00, 0x00, 0x70, 0xe0, 0xa1, 0x50, 
  0xd1, 0x8b, 0x80, 0x00, 0x80, 0x00, 0x00, 0xf0, 0x01, 0x02, 0x01, 0x01, 
  0x00, 0x00, 0x10, 0x01, 0x12, 0x80, 0x40, 0x10, 0x00, 0x00, 0x00, 0x00, 
  0x00, 0x00, 0xf0, 0x40, 0x20, 0x49, 0x51, 0xa8, 0x88, 0x00, 0x80, 0x00, 
  0x00, 0x44, 0x04, 0x02, 0x01, 0x01, 0x00, 0x00, 0x10, 0x01, 0x11, 0x02, 
  0x40, 0x10, 0x00, 0x00, 0x00, 0x00, 0x00, 0x00, 0xd8, 0x20, 0x40, 0x20, 
  0x53, 0xa8, 0x88, 0xe3, 0x98, 0xe4, 0x0e, 0x44, 0x80, 0x33, 0x99, 0x33, 
  0x44, 0xa6, 0x1c, 0x99, 0x3b, 0xaa, 0xdc, 0x39, 0x00, 0x00, 0x00, 0x00, 
  0x00, 0x00, 0xbc, 0x13, 0x80, 0x10, 0xd5, 0xa9, 0xbe, 0x94, 0xa4, 0x12, 
  0x12, 0x42, 0x40, 0x4a, 0x25, 0x49, 0x54, 0x69, 0x12, 0x25, 0x11, 0x99, 
  0x52, 0x12, 0x00, 0x00, 0x00, 0x00, 0x00, 0x00, 0x2e, 0x0e, 0x00, 0x0f, 
  0x59, 0x50, 0x88, 0x94, 0x84, 0x61, 0x12, 0x42, 0x40, 0x7a, 0x3d, 0x79, 
  0x54, 0x29, 0x12, 0x3d, 0x11, 0x89, 0x52, 0x12, 0x00, 0x00, 0x00, 0x00, 
  0x00, 0x00, 0xc7, 0x05, 0x00, 0x00, 0x51, 0x50, 0x88, 0x94, 0xa4, 0x82, 
  0x0e, 0x41, 0x44, 0x0a, 0x05, 0x09, 0x28, 0x29, 0x12, 0x05, 0x91, 0x88, 
  0x5c, 0x12, 0x00, 0x00, 0x00, 0x00, 0x00, 0x80, 0x03, 0x06, 0x80, 0x11, 
  0xd1, 0x53, 0x80, 0x63, 0x99, 0x74, 0x42, 0x41, 0x80, 0x33, 0x19, 0x32, 
  0x28, 0x26, 0x1c, 0x19, 0xa1, 0x88, 0x50, 0x22, 0x00, 0x00, 0x00, 0x00, 
  0x00, 0xc0, 0x01, 0x03, 0x80, 0x22, 0x00, 0x00, 0x00, 0x00, 0x00, 0x00, 
  0x02, 0x00, 0x00, 0x00, 0x00, 0x00, 0x00, 0x00, 0x00, 0x00, 0x00, 0x00, 
  0x0c, 0x00, 0x00, 0x00, 0x00, 0x00, 0x00, 0xc0, 0x80, 0x01, 0x80, 0x24, 
  0xd1, 0x8b, 0x00, 0x0e, 0x44, 0x80, 0x40, 0x40, 0x00, 0x20, 0x00, 0x00, 
  0x00, 0x01, 0x00, 0x10, 0x08, 0x02, 0x50, 0x00, 0x00, 0x00, 0x00, 0x00, 
  0x00, 0x60, 0xc0, 0x00, 0x80, 0x18, 0x51, 0xa8, 0x08, 0x11, 0x45, 0x81, 
  0x40, 0x40, 0x00, 0x20, 0x00, 0x00, 0x00, 0x01, 0x00, 0x00, 0x08, 0x02, 
  0x11, 0x00, 0x00, 0x00, 0x00, 0x00, 0x00, 0x30, 0x60, 0x00, 0x00, 0x00, 
  0x53, 0xa8, 0x88, 0x00, 0x29, 0xe0, 0x4c, 0xe6, 0x0c, 0xe6, 0x38, 0xe5, 
  0x98, 0x33, 0x05, 0x95, 0x3b, 0x07, 0x51, 0xc5, 0x00, 0x00, 0x00, 0x00, 
  0x00, 0x38, 0x30, 0x00, 0x00, 0x1f, 0xd5, 0xa9, 0xbe, 0x9c, 0x10, 0x90, 
  0x52, 0x49, 0x12, 0x29, 0x25, 0x93, 0x24, 0x49, 0x73, 0x53, 0x4a, 0x82, 
  0x50, 0x2b, 0x01, 0x00, 0x00, 0x00, 0x00, 0x10, 0x18, 0x00, 0x80, 0x20, 
  0x59, 0x50, 0x88, 0x90, 0x10, 0x90, 0x5e, 0x4f, 0x1e, 0x21, 0x25, 0x91, 
  0x04, 0x79, 0x01, 0x51, 0x4a, 0x82, 0x50, 0xe9, 0x01, 0x00, 0x00, 0x00, 
  0x00, 0x0c, 0x0c, 0x00, 0x80, 0x20, 0x51, 0x50, 0x08, 0x59, 0x10, 0x91, 
  0x42, 0x41, 0x02, 0x29, 0x25, 0x91, 0x24, 0x09, 0x01, 0x91, 0x4b, 0x42, 
  0x50, 0x29, 0x00, 0x00, 0x00, 0x00, 0x00, 0x0e, 0x06, 0x00, 0x00, 0x1f, 
  0xd1, 0x53, 0x00, 0x56, 0x10, 0xe0, 0x4c, 0x86, 0x0c, 0x26, 0x59, 0x61, 
  0x19, 0x32, 0x01, 0x11, 0x4a, 0x44, 0x50, 0xc9, 0x00, 0x00, 0x00, 0x00, 
  0x00, 0x0f, 0x03, 0x00, 0x00, 0x00, 0x00, 0x00, 0x00, 0x00, 0x00, 0x00, 
  0x00, 0x00, 0x00, 0x00, 0x00, 0x00, 0x00, 0x00, 0x00, 0x80, 0x01, 0x00, 
  0x00, 0x00, 0x00, 0x00, 0x00, 0x00, 0x00, 0x9d, 0x01, 0x00, 0x00, 0x1f, 
  0xd1, 0x8b, 0x80, 0x08, 0x00, 0x40, 0x20, 0x20, 0x80, 0x02, 0x00, 0x00, 
  0x00, 0x00, 0x00, 0x00, 0x00, 0x00, 0x00, 0x00, 0x00, 0x00, 0x00, 0x00, 
  0x80, 0x3d, 0x00, 0x00, 0x80, 0x20, 0x51, 0xa8, 0x88, 0x28, 0x00, 0x40, 
  0x20, 0x20, 0x80, 0x00, 0x00, 0x00, 0x00, 0x00, 0x00, 0x00, 0x00, 0x00, 
  0x00, 0x00, 0x00, 0x00, 0x00, 0x00, 0x80, 0xf1, 0x00, 0x00, 0x80, 0x20, 
  0x53, 0xa8, 0x88, 0x08, 0x52, 0x71, 0x26, 0x73, 0x86, 0x2a, 0x06, 0x00, 
  0x00, 0x00, 0x00, 0x00, 0x00, 0x00, 0x00, 0x00, 0x00, 0x00, 0x00, 0x00, 
  0x80, 0x38, 0x00, 0x00, 0x00, 0x1f, 0xd5, 0xa9, 0xbe, 0x08, 0xd2, 0x4a, 
  0xa9, 0x24, 0x89, 0x5a, 0x09, 0x00, 0x00, 0x00, 0x00, 0x00, 0x00, 0x00, 
  0x00, 0x00, 0x00, 0x00, 0x00, 0x00, 0xc0, 0x0f, 0x00, 0x00, 0x00, 0x00, 
  0x59, 0x50, 0x88, 0x08, 0x52, 0x4a, 0xaf, 0x27, 0x8f, 0x4a, 0x0f, 0x00, 
  0x00, 0x00, 0x00, 0x00, 0x00, 0x00, 0x00, 0x00, 0x00, 0x00, 0x00, 0x00, 
  0xc0, 0x03, 0x00, 0x00, 0x80, 0x11, 0x51, 0x50, 0x88, 0x28, 0x5a, 0x4a, 
  0xa1, 0x20, 0x81, 0x4a, 0x01, 0x00, 0x00, 0x00, 0x00, 0x00, 0x00, 0x00, 
  0x00, 0x00, 0x00, 0x00, 0x00, 0x00, 0xe0, 0x00, 0x00, 0x00, 0x80, 0x22, 
  0xd1, 0x53, 0x00, 0x07, 0x54, 0x72, 0x26, 0x43, 0x86, 0x4a, 0x06, 0x00, 
  0x00, 0x00, 0x00, 0x00, 0x00, 0x00, 0x00, 0x00, 0x00, 0x00, 0x00, 0x00, 
  0x00, 0x00, 0x00, 0x00, 0x80, 0x24, 0x00, 0x00, 0x00, 0x00, 0x00, 0x00, 
  0x00, 0x00, 0x00, 0x00, 0x00, 0x00, 0x00, 0x00, 0x00, 0x00, 0x00, 0x00, 
  0x00, 0x00, 0x00, 0x00, 0x00, 0x00, 0x00, 0x00, 0x00, 0x00, 0x80, 0x18, 
  0x0c, 0xf1, 0x3d, 0x0e, 0xe3, 0x89, 0x00, 0xc6, 0xc3, 0x78, 0x22, 0x62, 
  0x0c, 0x00, 0x02, 0x00, 0x80, 0x00, 0x00, 0x00, 0x20, 0x20, 0x40, 0x00, 
  0x00, 0x00, 0x02, 0x00, 0x00, 0x00, 0x92, 0x42, 0x04, 0x91, 0x24, 0x8a, 
  0x08, 0x49, 0x24, 0x89, 0x2a, 0x93, 0x12, 0x00, 0x00, 0x00, 0x80, 0x00, 
  0x00, 0x00, 0x00, 0x20, 0x40, 0x00, 0x00, 0x00, 0x02, 0x20, 0x00, 0x00, 
  0x41, 0x44, 0x84, 0x40, 0x28, 0x52, 0x88, 0x50, 0x14, 0x8a, 0x2a, 0x92, 
  0x1a, 0x00, 0x2a, 0xce, 0xd4, 0x39, 0xdc, 0x31, 0x26, 0x27, 0xcc, 0x71, 
  0xca, 0x31, 0x67, 0x0a, 0x00, 0x00, 0x41, 0x44, 0x9c, 0x5c, 0xe8, 0x21, 
  0xbe, 0xd0, 0x13, 0x7a, 0x2a, 0x92, 0x16, 0x00, 0x5a, 0x21, 0x8d, 0x04, 
  0x42, 0x4a, 0xa9, 0x24, 0x52, 0x4a, 0x26, 0x49, 0x92, 0x06, 0x80, 0x01, 
  0xc1, 0x47, 0x84, 0x50, 0xa8, 0x20, 0x88, 0x50, 0xd0, 0x2a, 0x14, 0xe2, 
  0x12, 0x00, 0x4a, 0xe6, 0x85, 0x18, 0x4c, 0x7a, 0xa1, 0x24, 0x42, 0x4a, 
  0x22, 0x09, 0xf2, 0x02, 0x00, 0x0e, 0x52, 0x44, 0x04, 0x99, 0x24, 0x21, 
  0x08, 0x49, 0x20, 0x49, 0x14, 0x82, 0x92, 0x00, 0x4a, 0x28, 0x84, 0x20, 
  0xd0, 0x09, 0xa9, 0x24, 0x52, 0x4a, 0x22, 0x49, 0x12, 0x22, 0x00, 0x32, 
  0x4c, 0x44, 0x3c, 0x16, 0x23, 0x22, 0x00, 0x46, 0xc0, 0x8b, 0x14, 0x77, 
  0x8c, 0x08, 0x4a, 0xc7, 0x04, 0x1d, 0x4e, 0x30, 0x26, 0x2b, 0x4c, 0xb2, 
  0xc2, 0x32, 0x64, 0x02, 0x00, 0x32, 0x00, 0x00, 0x00, 0x00, 0x00, 0x00, 
  0x00, 0x00, 0x00, 0x00, 0x00, 0x00, 0x40, 0x00, 0x00, 0x00, 0x00, 0x00, 
  0x40, 0x00, 0x00, 0x00, 0x00, 0x00, 0x00, 0x00, 0x00, 0x00, 0x00, 0x0e, 
  0x00, 0x00, 0x00, 0x00, 0x00, 0x00, 0x80, 0xc1, 0x00, 0x00, 0x82, 0x40, 
  0x02, 0x0a, 0x00, 0x00, 0x00, 0x00, 0x00, 0x00, 0x00, 0x00, 0x00, 0x00, 
  0x00, 0x00, 0x00, 0x00, 0x80, 0x01, 0x00, 0x00, 0x00, 0x00, 0x00, 0x00, 
  0x80, 0x80, 0x00, 0x08, 0x84, 0x20, 0x04, 0x11, 0x00, 0x00, 0x00, 0x00, 
  0x00, 0x00, 0x00, 0x00, 0x00, 0x00, 0x00, 0x00, 0x00, 0x00, 0x00, 0x00, 
  0x00, 0x00, 0x00, 0x00, 0x00, 0x00, 0x80, 0x80, 0xa0, 0x08, 0x80, 0x20, 
  0x84, 0x20, 0x00, 0x00, 0x00, 0x00, 0x00, 0x00, 0x00, 0x00, 0x00, 0x00, 
  0x00, 0x00, 0x00, 0x00, 0x80, 0x00, 0x00, 0x00, 0x00, 0x00, 0x00, 0x00, 
  0x80, 0x80, 0x50, 0x10, 0x00, 0x10, 0x48, 0x40, 0x00, 0x00, 0x00, 0x00, 
  0x00, 0x00, 0x00, 0x00, 0x00, 0x00, 0x00, 0x00, 0x00, 0x00, 0x00, 0x00, 
  0x00, 0x00, 0x00, 0x00, 0x00, 0x00, 0x80, 0x80, 0x00, 0x10, 0x80, 0x20, 
  0x84, 0x20, 0x00, 0x00, 0x00, 0x00, 0x00, 0x00, 0x00, 0x00, 0x00, 0x00, 
  0x00, 0x00, 0x00, 0x00, 0x80, 0x3f, 0x00, 0x00, 0x00, 0x00, 0x00, 0x00, 
  0x80, 0x80, 0x00, 0x20, 0x80, 0x20, 0x04, 0x11, 0x00, 0x00, 0x00, 0x00, 
  0x00, 0x00, 0x00, 0x00, 0x00, 0x00, 0x00, 0x00, 0x00, 0x00, 0x00, 0x24, 
  0x00, 0x00, 0x00, 0x00, 0x00, 0x00, 0x80, 0xc1, 0x00, 0x20, 0x80, 0x40, 
  0x02, 0x0a, 0x00, 0x00, 0x00, 0x00, 0x00, 0x00, 0x00, 0x00, 0x00, 0x00, 
  0x00, 0x00, 0x00, 0x00, 0x00, 0x24, 0x00, 0x00, 0x00, 0x00, 0x00, 0x00, 
  0x00, 0x00, 0x00, 0x00, 0x00, 0x00, 0x00, 0x00, 0x00, 0x00, 0x00, 0x00, 
  0x00, 0x00, 0x00, 0x00, 0x00, 0x00, 0x00, 0x00, 0x00, 0x00, 0x00, 0x24, 
  0x26, 0x3a, 0x00, 0x03, 0x1c, 0x00, 0x00, 0x00, 0x10, 0x00, 0x00, 0x00, 
  0x00, 0x04, 0x00, 0x00, 0x04, 0x00, 0x00, 0x00, 0x00, 0x00, 0x00, 0x00, 
  0x00, 0x00, 0x00, 0x00, 0x80, 0x1b, 0x29, 0x4a, 0x88, 0x44, 0xa2, 0x00, 
  0x00, 0x00, 0x10, 0x20, 0x00, 0x00, 0x00, 0x04, 0x00, 0x00, 0x00, 0x00, 
  0x00, 0x00, 0x00, 0x00, 0x00, 0x00, 0x00, 0x00, 0x00, 0x00, 0x00, 0x00, 
  0x68, 0x8a, 0x88, 0x40, 0x01, 0x70, 0xc6, 0x29, 0x73, 0x20, 0x9c, 0x71, 
  0xca, 0x1c, 0x1c, 0xe7, 0x54, 0x00, 0x00, 0x00, 0x00, 0x00, 0x00, 0x00, 
  0x00, 0x00, 0x00, 0x00, 0x80, 0x00, 0xa4, 0x8a, 0x3e, 0x23, 0x39, 0x08, 
  0x29, 0x99, 0x94, 0x10, 0x42, 0x4a, 0x26, 0x25, 0x92, 0x94, 0xb4, 0x00, 
  0x00, 0x00, 0x00, 0x00, 0x00, 0x00, 0x00, 0x00, 0x00, 0x00, 0x00, 0x00, 
  0x22, 0x8b, 0x08, 0x24, 0x21, 0x30, 0x2f, 0x89, 0x90, 0x10, 0xcc, 0x4b, 
  0x22, 0x24, 0x92, 0x94, 0x94, 0x00, 0x00, 0x00, 0x00, 0x00, 0x00, 0x00, 
  0x00, 0x00, 0x00, 0x00, 0x00, 0x00, 0x21, 0x4a, 0x88, 0x14, 0xb2, 0x40, 
  0x21, 0x89, 0x94, 0x08, 0x50, 0x48, 0x22, 0x25, 0x12, 0x97, 0x94, 0x00, 
  0x00, 0x00, 0x00, 0x00, 0x00, 0x00, 0x00, 0x00, 0x00, 0x00, 0x00, 0x00, 
  0x2f, 0x3a, 0x00, 0x13, 0x2c, 0x38, 0xc6, 0x0a, 0x93, 0x08, 0x8e, 0xb1, 
  0xc2, 0x24, 0x2c, 0x64, 0x95, 0x00, 0x00, 0x00, 0x00, 0x00, 0x00, 0x00, 
  0x00, 0x00, 0x00, 0x00, 0x80, 0x3f, 0x00, 0x00, 0x00, 0x00, 0x00, 0x00, 
  0x00, 0x00, 0x00, 0x00, 0x00, 0x00, 0x00, 0x00, 0x00, 0x03, 0x00, 0x00, 
  0x00, 0x00, 0x00, 0x00, 0x00, 0x00, 0x00, 0x00, 0x00, 0x00, 0x00, 0x24, 
  0x2f, 0xfa, 0xde, 0x03, 0x60, 0xa2, 0x03, 0x88, 0x80, 0x81, 0x08, 0x5e, 
  0xf4, 0xbd, 0x07, 0x00, 0x40, 0x80, 0xe8, 0x45, 0x0c, 0x00, 0x00, 0x0a, 
  0x00, 0x12, 0x00, 0x00, 0x00, 0x24, 0x21, 0x22, 0x42, 0x04, 0x91, 0xa2, 
  0x84, 0x88, 0x48, 0xa2, 0x88, 0x42, 0x44, 0x84, 0x28, 0x00, 0x00, 0x80, 
  0x28, 0x44, 0x12, 0x00, 0x00, 0x02, 0x00, 0x02, 0x00, 0x00, 0x00, 0x24, 
  0x61, 0x22, 0x42, 0x04, 0x81, 0xa6, 0x88, 0x50, 0x28, 0xa0, 0x88, 0xc2, 
  0x44, 0x84, 0x08, 0x1c, 0x47, 0x85, 0x2d, 0x6c, 0x21, 0x9c, 0x73, 0xca, 
  0x38, 0x97, 0x29, 0x00, 0x00, 0x18, 0xa7, 0x22, 0xce, 0x83, 0x40, 0xaa, 
  0xe8, 0x23, 0x24, 0x10, 0x45, 0x4e, 0x45, 0x9c, 0x07, 0x92, 0x40, 0x8b, 
  0xed, 0x6c, 0x21, 0x92, 0x94, 0x2a, 0x25, 0x52, 0x5a, 0x00, 0x00, 0x00, 
  0x21, 0x23, 0x42, 0x81, 0x20, 0xb2, 0x88, 0x50, 0x24, 0x10, 0x45, 0x42, 
  0x46, 0x84, 0x02, 0x12, 0x43, 0x89, 0x2a, 0x54, 0x21, 0x92, 0x94, 0x2a, 
  0x24, 0x52, 0x4a, 0x00, 0x80, 0x0f, 0x21, 0x22, 0x42, 0x42, 0x10, 0xa2, 
  0x84, 0x88, 0x42, 0x0a, 0x22, 0x42, 0x44, 0x84, 0x24, 0x12, 0x44, 0x89, 
  0x2a, 0x54, 0x12, 0x92, 0x73, 0x2a, 0x25, 0x52, 0x4a, 0x00, 0x00, 0x08, 
  0x2f, 0x22, 0x5e, 0x44, 0xf0, 0xa2, 0x03, 0x88, 0x82, 0x09, 0x22, 0x5e, 
  0x44, 0xbc, 0x08, 0xac, 0x43, 0x89, 0xe8, 0x45, 0x0c, 0xac, 0x10, 0xca, 
  0x58, 0x94, 0x49, 0x00, 0x00, 0x00, 0x00, 0x00, 0x00, 0x00, 0x00, 0x00, 
  0x00, 0x00, 0x00, 0x00, 0x00, 0x00, 0x00, 0x00, 0x00, 0x00, 0x00, 0x00, 
  0x00, 0x00, 0x00, 0x80, 0x10, 0x00, 0x00, 0x00, 0x00, 0x00, 0x00, 0x0f, 
  0x0c, 0x20, 0x01, 0x00, 0x04, 0x00, 0x00, 0x00, 0x20, 0x00, 0x81, 0x00, 
  0x00, 0x24, 0x00, 0x80, 0x18, 0x04, 0x00, 0x00, 0x40, 0x11, 0x00, 0x00, 
  0x00, 0x00, 0x00, 0x00, 0x80, 0x00, 0x12, 0x20, 0x00, 0x00, 0x04, 0x00, 
  0x00, 0x00, 0x20, 0x00, 0x81, 0x00, 0x00, 0x04, 0x00, 0xc2, 0x25, 0x04, 
  0x00, 0x00, 0x40, 0x08, 0x00, 0x00, 0x00, 0x00, 0x00, 0x00, 0x80, 0x00, 
  0xa1, 0x73, 0x99, 0xe2, 0x84, 0x4b, 0xce, 0x19, 0x77, 0xc6, 0xe1, 0x4c, 
  0x71, 0x2e, 0x53, 0xa0, 0x24, 0xce, 0x70, 0xca, 0x40, 0x9d, 0xc1, 0x95, 
  0x49, 0x07, 0x00, 0x00, 0x80, 0x0f, 0xa1, 0x24, 0xa5, 0x95, 0x44, 0x48, 
  0x29, 0xa5, 0x20, 0x29, 0x91, 0xd2, 0x4a, 0xa4, 0xb4, 0xc0, 0x18, 0x24, 
  0x91, 0x26, 0x5d, 0x49, 0x22, 0x4d, 0x4a, 0x09, 0x00, 0x00, 0x00, 0x00, 
  0xa1, 0x24, 0xa5, 0x94, 0x84, 0x49, 0x29, 0x3d, 0x23, 0x2f, 0x91, 0x52, 
  0x4a, 0xa4, 0x94, 0x80, 0x25, 0x24, 0x91, 0x22, 0x41, 0xc9, 0x23, 0x45, 
  0x4a, 0x09, 0x00, 0x00, 0x80, 0x04, 0x92, 0x23, 0xa5, 0x94, 0x04, 0x6a, 
  0xce, 0x05, 0x24, 0x21, 0x91, 0x52, 0x4a, 0xa4, 0x94, 0xe2, 0x24, 0x24, 
  0x71, 0x22, 0x41, 0x49, 0xc0, 0x45, 0x6a, 0x07, 0x00, 0x00, 0x80, 0x0a, 
  0x8c, 0x40, 0x99, 0x64, 0xc5, 0x51, 0x08, 0x99, 0x43, 0xc6, 0xe1, 0x4c, 
  0xb2, 0x28, 0x93, 0x80, 0x18, 0xc8, 0x10, 0xc2, 0x40, 0x89, 0x01, 0x85, 
  0x51, 0x21, 0x00, 0x00, 0x80, 0x0a, 0x80, 0x00, 0x00, 0x00, 0x00, 0x00, 
  0xc6, 0x00, 0x00, 0x00, 0x00, 0x00, 0x00, 0x00, 0x00, 0x00, 0x00, 0x00, 
  0x10, 0x00, 0x00, 0x00, 0xc0, 0x00, 0x00, 0x01, 0x00, 0x00, 0x00, 0x09, 
  0x0f, 0x00, 0x00, 0x38, 0x00, 0x01, 0x00, 0x48, 0x00, 0x10, 0x20, 0x00, 
  0x00, 0x20, 0x01, 0x00, 0x80, 0x04, 0x00, 0x04, 0x00, 0x00, 0x00, 0x00, 
  0x24, 0x00, 0x00, 0x00, 0x00, 0x00, 0x11, 0x00, 0x00, 0x48, 0x02, 0x01, 
  0x00, 0x08, 0x00, 0x00, 0x10, 0x00, 0x00, 0x20, 0x00, 0x00, 0x80, 0x04, 
  0x00, 0x04, 0x00, 0x40, 0x00, 0x00, 0x04, 0x00, 0x00, 0x00, 0x80, 0x04, 
  0x51, 0x19, 0xe7, 0x88, 0xc0, 0x99, 0xe2, 0x5c, 0xa6, 0x50, 0x39, 0x53, 
  0x8b, 0x73, 0x99, 0x02, 0xcc, 0x1d, 0x53, 0x24, 0x93, 0x1c, 0x18, 0x53, 
  0xae, 0x92, 0x0c, 0x00, 0x80, 0x0a, 0xcf, 0xa4, 0x10, 0x88, 0x20, 0xa5, 
  0x95, 0x48, 0x69, 0xd1, 0x92, 0x34, 0x55, 0x22, 0xa5, 0x05, 0x92, 0xa4, 
  0x34, 0x94, 0x94, 0x02, 0xa4, 0xb4, 0xa4, 0x95, 0x12, 0x00, 0x80, 0x0a, 
  0x41, 0x3c, 0x63, 0x88, 0x20, 0xa5, 0x94, 0x48, 0x29, 0x51, 0x92, 0x14, 
  0x55, 0x22, 0xa5, 0x04, 0x92, 0xa4, 0x17, 0x8c, 0xa7, 0x0c, 0x84, 0x94, 
  0xa4, 0x94, 0x1e, 0x00, 0x00, 0x09, 0x41, 0x04, 0x84, 0x48, 0x22, 0xa5, 
  0x94, 0x48, 0x29, 0x51, 0x92, 0x14, 0x55, 0x22, 0xa5, 0x24, 0x92, 0xa4, 
  0x10, 0x94, 0x40, 0x50, 0xa4, 0x94, 0xa4, 0xd4, 0x02, 0x00, 0x00, 0x00, 
  0x41, 0x98, 0x73, 0x38, 0xc0, 0x99, 0x64, 0x51, 0x26, 0x51, 0x12, 0x13, 
  0x95, 0x45, 0x99, 0x24, 0x0c, 0x25, 0x13, 0x24, 0x43, 0x0e, 0x18, 0x93, 
  0xa8, 0xa4, 0x4c, 0x00, 0x00, 0x00, 0x00, 0x00, 0x00, 0x00, 0x00, 0x00, 
  0x00, 0x00, 0x00, 0x00, 0x00, 0x00, 0x00, 0x00, 0x00, 0x10, 0x00, 0x00, 
  0x00, 0x00, 0x30, 0x00, 0x00, 0x00, 0x00, 0x00, 0x00, 0x00, 0x00, 0x00, 
  };
