#define smain_width 240
#define smain_height 80
static char smain_bits[] = {
  0x4c, 0x00, 0x00, 0x00, 0x00, 0x00, 0x00, 0x00, 0x00, 0x00, 0x00, 0x00, 
  0x00, 0x00, 0x00, 0xff, 0xff, 0xff, 0xff, 0xff, 0xff, 0xff, 0xff, 0xff, 
  0xff, 0xff, 0xff, 0xff, 0x03, 0x00, 0x52, 0x00, 0x00, 0x00, 0x00, 0x00, 
  0x01, 0x00, 0x00, 0x00, 0x00, 0x00, 0x00, 0x00, 0x00, 0x01, 0x00, 0x00, 
  0x00, 0x00, 0x00, 0x00, 0x00, 0x00, 0x00, 0x00, 0x00, 0x00, 0x02, 0x0f, 
  0xc1, 0x31, 0xc6, 0x19, 0x4c, 0x31, 0x00, 0x00, 0x00, 0x00, 0x00, 0x00, 
  0x00, 0x00, 0x00, 0xf1, 0x09, 0x00, 0x00, 0x00, 0x00, 0x00, 0x00, 0xfe, 
  0x1f, 0x00, 0x61, 0x00, 0x82, 0x10, 0x41, 0x4a, 0x29, 0x24, 0xd2, 0x4a, 
  0x00, 0x00, 0x00, 0x00, 0x00, 0x00, 0x00, 0x00, 0x00, 0x19, 0x0e, 0x00, 
  0x00, 0x00, 0x00, 0x00, 0x00, 0x38, 0x18, 0xc0, 0x61, 0x00, 0x42, 0x20, 
  0x41, 0x4a, 0xc9, 0x3c, 0x52, 0x7a, 0x00, 0x00, 0x00, 0x00, 0x00, 0x00, 
  0x00, 0x00, 0x00, 0x0d, 0x0c, 0x00, 0x00, 0x00, 0x00, 0x00, 0x00, 0x38, 
  0x30, 0x80, 0x61, 0x00, 0x22, 0x4f, 0x52, 0x4a, 0x09, 0x05, 0x52, 0x0a, 
  0x01, 0x00, 0x00, 0x00, 0x00, 0x00, 0x00, 0x00, 0x00, 0x0d, 0x08, 0x00, 
  0x00, 0x00, 0x00, 0x00, 0x00, 0x38, 0x20, 0x80, 0x01, 0x08, 0xa2, 0x50, 
  0x4c, 0x32, 0xe6, 0x18, 0x4c, 0x32, 0x00, 0x00, 0x00, 0x00, 0x00, 0x00, 
  0x00, 0x00, 0x00, 0x1d, 0x08, 0x00, 0x00, 0x00, 0x00, 0x00, 0x00, 0x38, 
  0x08, 0x80, 0x01, 0x08, 0xa2, 0x50, 0x00, 0x00, 0x00, 0x00, 0x00, 0x00, 
  0x00, 0x00, 0x00, 0x00, 0x00, 0x00, 0x00, 0x00, 0x00, 0x7d, 0x00, 0x00, 
  0x00, 0x00, 0x00, 0x00, 0x00, 0x38, 0x08, 0x80, 0x01, 0x0c, 0x22, 0x49, 
  0x00, 0x00, 0x00, 0x00, 0x00, 0x00, 0x00, 0x00, 0x00, 0x00, 0x00, 0x00, 
  0x00, 0x00, 0x00, 0xf9, 0x03, 0x1e, 0x78, 0x38, 0x0e, 0x33, 0x3c, 0x38, 
  0x0c, 0xb8, 0x41, 0x7e, 0x42, 0x20, 0x00, 0x00, 0x00, 0x00, 0x00, 0x00, 
  0x00, 0x00, 0x00, 0x00, 0x00, 0x00, 0x00, 0x00, 0x00, 0xf1, 0x0f, 0x33, 
  0xcc, 0x30, 0x8c, 0x7b, 0x66, 0xf8, 0x0f, 0xcc, 0x71, 0x0c, 0x82, 0x10, 
  0x0a, 0x01, 0x00, 0x82, 0x0a, 0x40, 0x00, 0x00, 0x0a, 0x08, 0x00, 0x00, 
  0x00, 0x00, 0x00, 0x81, 0x1f, 0x61, 0xc4, 0x31, 0x0c, 0x27, 0xc2, 0x38, 
  0x0c, 0x84, 0x61, 0x0c, 0x02, 0x0f, 0x09, 0x02, 0x00, 0x42, 0x08, 0x20, 
  0x00, 0x00, 0x02, 0x08, 0x00, 0x00, 0x00, 0x00, 0x00, 0x01, 0x9e, 0x7f, 
  0x86, 0x30, 0x0c, 0x03, 0xff, 0x38, 0x08, 0x86, 0x61, 0x0c, 0x02, 0x00, 
  0x09, 0x32, 0x8e, 0xe3, 0xca, 0x70, 0x65, 0x16, 0xca, 0x1d, 0x00, 0x00, 
  0x00, 0x00, 0x00, 0x05, 0x98, 0x01, 0x06, 0x30, 0x0c, 0x03, 0x03, 0x38, 
  0x08, 0x86, 0x61, 0x0c, 0x82, 0x11, 0x09, 0x4a, 0x49, 0x42, 0x2a, 0x21, 
  0x93, 0x2a, 0x2a, 0x08, 0x00, 0x00, 0x00, 0x00, 0x00, 0x05, 0x98, 0x01, 
  0x06, 0x31, 0x0c, 0x03, 0x03, 0x38, 0x40, 0x86, 0x61, 0x0c, 0x82, 0x22, 
  0x09, 0x4a, 0x49, 0x42, 0xea, 0x21, 0x91, 0x2a, 0xca, 0x08, 0x00, 0x00, 
  0x00, 0x00, 0x00, 0x0d, 0x88, 0x43, 0x0e, 0x31, 0x0c, 0x03, 0x87, 0x38, 
  0x20, 0x8e, 0x61, 0x0c, 0x82, 0x24, 0x09, 0x4a, 0x49, 0x42, 0x2a, 0x20, 
  0x91, 0x2a, 0x0a, 0x09, 0x00, 0x00, 0x00, 0x00, 0x00, 0x3d, 0x0c, 0x3f, 
  0xfc, 0x30, 0x1e, 0x03, 0x7e, 0x38, 0x38, 0x8c, 0x61, 0x4c, 0x82, 0x18, 
  0x7a, 0x31, 0x96, 0x43, 0xca, 0x20, 0x61, 0x2a, 0xea, 0x10, 0x00, 0x00, 
  0x00, 0x00, 0x00, 0xe5, 0x03, 0x1e, 0x78, 0xe0, 0x8d, 0x0f, 0x3c, 0xfe, 
  0x3f, 0xf8, 0xf3, 0x3c, 0x02, 0x00, 0x00, 0x00, 0x00, 0x00, 0x00, 0x00, 
  0x00, 0x00, 0x00, 0x00, 0x00, 0x00, 0x00, 0x00, 0x00, 0x01, 0x00, 0x00, 
  0x00, 0x00, 0x00, 0x00, 0x00, 0x00, 0x00, 0x00, 0x00, 0x00, 0x02, 0x1f, 
  0x00, 0x00, 0x00, 0x00, 0x00, 0x00, 0x00, 0x00, 0x00, 0x00, 0x00, 0x00, 
  0x00, 0x00, 0x00, 0xff, 0xff, 0xff, 0xff, 0xff, 0xff, 0xff, 0xff, 0xff, 
  0xff, 0xff, 0xff, 0xff, 0x83, 0x20, 0x00, 0x00, 0x00, 0x00, 0x00, 0x00, 
  0x00, 0x00, 0x00, 0x00, 0x00, 0x00, 0x00, 0x00, 0x00, 0x00, 0x00, 0x00, 
  0x00, 0x00, 0x00, 0x00, 0x00, 0x00, 0x00, 0x00, 0x00, 0x00, 0x80, 0x20, 
  0x01, 0x00, 0x08, 0x2a, 0x40, 0x00, 0x08, 0x04, 0x00, 0x00, 0x00, 0x00, 
  0x00, 0x00, 0x00, 0x00, 0x00, 0x00, 0x00, 0x00, 0x00, 0x00, 0x00, 0x00, 
  0x00, 0x00, 0x00, 0x00, 0x00, 0x1f, 0x01, 0x00, 0x08, 0x21, 0x40, 0x00, 
  0x04, 0x08, 0x00, 0x00, 0x00, 0x00, 0x00, 0x00, 0x00, 0x00, 0x00, 0x00, 
  0x00, 0x00, 0x00, 0x00, 0x00, 0x00, 0x00, 0xfc, 0xff, 0x7f, 0x00, 0x00, 
  0xc1, 0x38, 0x8e, 0x2b, 0xc3, 0x49, 0xa4, 0xc8, 0x59, 0x0c, 0x00, 0x00, 
  0x00, 0x00, 0x00, 0x00, 0x00, 0x00, 0x00, 0x00, 0x00, 0x00, 0x00, 0x00, 
  0x00, 0x04, 0x00, 0x80, 0x00, 0x1f, 0x21, 0x25, 0x09, 0xa9, 0x44, 0x4a, 
  0x64, 0x29, 0xa9, 0x12, 0x00, 0x00, 0x00, 0x00, 0x00, 0x00, 0x00, 0x00, 
  0x00, 0x00, 0x00, 0x00, 0x00, 0x00, 0x00, 0x54, 0x55, 0xd5, 0x80, 0x20, 
  0x21, 0x25, 0x09, 0xa9, 0x47, 0x52, 0x24, 0x29, 0xa9, 0x1e, 0x00, 0x00, 
  0x00, 0x00, 0x00, 0x00, 0x00, 0x00, 0x00, 0x00, 0x00, 0x00, 0x00, 0x00, 
  0x00, 0x04, 0x00, 0x80, 0x80, 0x20, 0x21, 0x25, 0x09, 0xa9, 0x40, 0x22, 
  0x24, 0x29, 0xa9, 0x02, 0x00, 0x00, 0x00, 0x00, 0x00, 0x00, 0x00, 0x00, 
  0x00, 0x00, 0x00, 0x00, 0x00, 0x00, 0x00, 0x44, 0x44, 0xc4, 0x00, 0x1f, 
  0xcf, 0x58, 0x0e, 0x29, 0xc3, 0x21, 0x28, 0xc5, 0xaa, 0x0c, 0x00, 0x00, 
  0x00, 0x00, 0x00, 0x00, 0x00, 0x00, 0x00, 0x00, 0x00, 0x00, 0x00, 0x00, 
  0x00, 0x04, 0x00, 0x80, 0x00, 0x00, 0x00, 0x00, 0x00, 0x00, 0x00, 0x18, 
  0x00, 0x00, 0x00, 0x00, 0x00, 0x00, 0x00, 0x00, 0x00, 0x00, 0x00, 0x00, 
  0x00, 0x00, 0x00, 0x00, 0x00, 0x00, 0xf0, 0x57, 0x51, 0x51, 0x83, 0x11, 
  0x00, 0x00, 0x00, 0x00, 0x00, 0x00, 0x00, 0x00, 0x00, 0x00, 0x00, 0x00, 
  0x00, 0x00, 0x00, 0x00, 0x00, 0x00, 0x00, 0x00, 0x00, 0x00, 0x00, 0x00, 
  0x10, 0x00, 0x00, 0x70, 0x8c, 0x22, 0x00, 0x00, 0x00, 0x00, 0x00, 0x00, 
  0x00, 0x00, 0x00, 0x00, 0x00, 0x00, 0x00, 0x00, 0x00, 0x00, 0x00, 0x00, 
  0x00, 0x00, 0x00, 0x00, 0xf8, 0xff, 0x5f, 0x44, 0x44, 0x94, 0x8f, 0x24, 
  0x62, 0x02, 0x00, 0x10, 0x00, 0x15, 0x00, 0x00, 0x00, 0x00, 0x00, 0x00, 
  0x00, 0x00, 0x00, 0x00, 0x00, 0x00, 0x00, 0x00, 0xfc, 0xff, 0x07, 0x00, 
  0x00, 0x00, 0x00, 0x10, 0x8a, 0x18, 0x91, 0x04, 0x00, 0x10, 0x80, 0x10, 
  0x00, 0x00, 0x00, 0x00, 0x00, 0x00, 0x00, 0x00, 0x00, 0x00, 0x00, 0x00, 
  0x00, 0x00, 0x54, 0x55, 0x55, 0x55, 0x55, 0x55, 0x55, 0x15, 0x0e, 0x00, 
  0x09, 0x54, 0xc6, 0x39, 0xc3, 0x95, 0x01, 0x00, 0x00, 0x00, 0x00, 0x00, 
  0x00, 0x00, 0x00, 0x00, 0x00, 0x00, 0x00, 0x00, 0x02, 0x00, 0x00, 0x00, 
  0x00, 0x00, 0x00, 0x10, 0x0a, 0x00, 0x09, 0x34, 0x29, 0x91, 0x84, 0x54, 
  0x02, 0x00, 0x00, 0x00, 0x00, 0x00, 0x00, 0x00, 0x00, 0x00, 0x00, 0x00, 
  0x00, 0x00, 0x46, 0x44, 0x44, 0x44, 0x44, 0x44, 0x44, 0x14, 0x0e, 0x00, 
  0x09, 0x14, 0x2f, 0x91, 0x87, 0xd4, 0x03, 0x00, 0x00, 0x00, 0x00, 0x00, 
  0x00, 0x00, 0x00, 0x00, 0x00, 0x00, 0x00, 0x00, 0x02, 0x00, 0x00, 0x00, 
  0x00, 0x00, 0x00, 0x10, 0x8a, 0x01, 0x91, 0x14, 0x21, 0x91, 0x80, 0x54, 
  0x00, 0x00, 0x00, 0x00, 0x00, 0x00, 0x00, 0x00, 0x00, 0x00, 0x00, 0x00, 
  0x00, 0x00, 0x54, 0x51, 0x51, 0x51, 0x51, 0x51, 0x51, 0x11, 0x0a, 0x0e, 
  0x62, 0x12, 0xc6, 0x22, 0x83, 0x94, 0x01, 0x00, 0x00, 0x00, 0x00, 0x00, 
  0x00, 0x00, 0x00, 0x00, 0x00, 0x00, 0x00, 0x00, 0x04, 0x00, 0x00, 0x3c, 
  0x00, 0x00, 0x00, 0x10, 0x0a, 0x32, 0x00, 0x00, 0x00, 0x00, 0x00, 0x00, 
  0x00, 0x00, 0x00, 0x00, 0x00, 0x00, 0x00, 0x00, 0x00, 0x00, 0x00, 0x00, 
  0x00, 0x00, 0x48, 0x44, 0x44, 0x42, 0x44, 0x44, 0x44, 0x14, 0x0e, 0x32, 
  0x00, 0x00, 0x00, 0x00, 0x00, 0x00, 0x00, 0x00, 0x00, 0x00, 0x00, 0x00, 
  0x00, 0x00, 0x00, 0x00, 0x00, 0x00, 0x00, 0x00, 0xc8, 0x81, 0xef, 0x81, 
  0x00, 0x00, 0x00, 0x10, 0x0a, 0x0e, 0x00, 0x00, 0x00, 0x00, 0x00, 0x00, 
  0x00, 0x00, 0x00, 0x00, 0x00, 0x00, 0x00, 0x00, 0x00, 0x00, 0x00, 0x00, 
  0x00, 0x00, 0x30, 0x7e, 0x10, 0x00, 0x55, 0x55, 0x55, 0x95, 0x8d, 0x01, 
  0x3a, 0x02, 0x02, 0x02, 0x00, 0x00, 0x40, 0x05, 0x00, 0x00, 0x02, 0x01, 
  0x01, 0x08, 0x48, 0x01, 0x00, 0x00, 0x10, 0x54, 0x00, 0x00, 0x00, 0x00, 
  0x1e, 0x00, 0x00, 0x70, 0x0c, 0x00, 0x49, 0x04, 0x02, 0x02, 0x00, 0x00, 
  0x20, 0x04, 0x00, 0x00, 0x02, 0x01, 0x01, 0x04, 0x50, 0x01, 0x00, 0x00, 
  0x10, 0x42, 0x00, 0x00, 0x00, 0x00, 0x50, 0x44, 0x44, 0xc4, 0x83, 0x00, 
  0x89, 0x64, 0x32, 0x67, 0x30, 0xc5, 0x70, 0x65, 0x30, 0x85, 0x33, 0x99, 
  0x33, 0xc4, 0x51, 0x61, 0xa2, 0x62, 0x1c, 0x57, 0xc6, 0x01, 0x00, 0x00, 
  0x10, 0x00, 0x00, 0x80, 0x00, 0x00, 0x89, 0x94, 0x4a, 0x92, 0x48, 0x2b, 
  0x21, 0x95, 0x48, 0x43, 0x4a, 0x25, 0x49, 0x24, 0x51, 0x91, 0xaa, 0x95, 
  0x12, 0x52, 0x29, 0x00, 0x00, 0x00, 0xf0, 0x57, 0x51, 0xd1, 0x80, 0x3f, 
  0x89, 0xf4, 0x7a, 0xf2, 0x48, 0xe9, 0x21, 0xf5, 0x48, 0x41, 0x7a, 0x3d, 
  0x79, 0x24, 0x51, 0x91, 0xaa, 0xf4, 0x12, 0x52, 0xcf, 0x00, 0x00, 0x00, 
  0x00, 0x04, 0x00, 0x80, 0x00, 0x24, 0x49, 0x14, 0x0a, 0x12, 0x48, 0x29, 
  0x20, 0x15, 0x48, 0x41, 0x0a, 0x05, 0x09, 0x24, 0x51, 0x91, 0x94, 0x14, 
  0x12, 0x52, 0x01, 0x01, 0x00, 0x00, 0x00, 0x44, 0x44, 0xc4, 0x00, 0x24, 
  0x3a, 0x62, 0x32, 0x64, 0x30, 0xc9, 0x20, 0x65, 0x30, 0x81, 0x33, 0x19, 
  0x32, 0xc8, 0x4a, 0x61, 0x94, 0x64, 0x1c, 0x52, 0xe6, 0x00, 0x00, 0x00, 
  0x00, 0x04, 0x00, 0x80, 0x00, 0x24, 0x00, 0x00, 0x00, 0x00, 0x00, 0x00, 
  0x00, 0x00, 0x00, 0x00, 0x00, 0x00, 0x00, 0x00, 0x00, 0x00, 0x00, 0x00, 
  0x00, 0x00, 0x00, 0x00, 0x00, 0x00, 0x00, 0xfc, 0xff, 0xff, 0x80, 0x1b, 
  0x00, 0x00, 0x00, 0x00, 0x00, 0x00, 0x00, 0x00, 0x00, 0x00, 0x00, 0x00, 
  0x00, 0x00, 0x00, 0x00, 0x00, 0x00, 0x00, 0x00, 0x00, 0x00, 0x00, 0x00, 
  0x00, 0x00, 0x00, 0x00, 0x00, 0x00, 0x00, 0x00, 0x00, 0x00, 0x00, 0x00, 
  0x00, 0x00, 0x00, 0x00, 0x00, 0x00, 0x00, 0x00, 0x00, 0x00, 0x00, 0x00, 
  0x00, 0x00, 0x00, 0x00, 0x00, 0x00, 0x00, 0x00, 0x00, 0x00, 0x80, 0x00, 
  0x22, 0x00, 0x00, 0x48, 0x00, 0x40, 0x00, 0x00, 0x01, 0x00, 0x20, 0x21, 
  0x00, 0x00, 0x00, 0x00, 0x00, 0x00, 0x00, 0x00, 0x00, 0x00, 0x00, 0x00, 
  0x00, 0x00, 0x00, 0x00, 0x00, 0x00, 0x51, 0x00, 0x00, 0x48, 0x00, 0x40, 
  0x00, 0x00, 0x01, 0x00, 0x00, 0x41, 0x00, 0x00, 0x00, 0x00, 0x00, 0x00, 
  0x00, 0x00, 0x00, 0x00, 0x00, 0x00, 0x00, 0x00, 0x00, 0x00, 0x00, 0x00, 
  0x89, 0x4a, 0xc2, 0xdc, 0x31, 0x45, 0x32, 0x89, 0x33, 0x98, 0xa8, 0x43, 
  0x00, 0x00, 0x00, 0x00, 0x00, 0x00, 0x00, 0x00, 0x00, 0x00, 0x00, 0x00, 
  0x00, 0x00, 0x00, 0x00, 0x00, 0x00, 0x89, 0x56, 0x22, 0x49, 0x4a, 0x43, 
  0x49, 0x09, 0x49, 0x24, 0x25, 0x41, 0x00, 0x00, 0x00, 0x00, 0x00, 0x00, 
  0x00, 0x00, 0x00, 0x00, 0x00, 0x00, 0x00, 0x00, 0x00, 0x00, 0x80, 0x3f, 
  0xf9, 0x92, 0x22, 0x49, 0x7a, 0xc1, 0x78, 0x0a, 0x49, 0x3c, 0x22, 0x41, 
  0x00, 0x00, 0x00, 0x00, 0x00, 0x00, 0x00, 0x00, 0x00, 0x00, 0x00, 0x00, 
  0x00, 0x00, 0x00, 0x00, 0x00, 0x24, 0x89, 0x12, 0x21, 0x49, 0x0a, 0x41, 
  0x09, 0x04, 0x49, 0x04, 0x25, 0x41, 0x00, 0x00, 0x00, 0x00, 0x00, 0x00, 
  0x00, 0x00, 0x00, 0x00, 0x00, 0x00, 0x00, 0x00, 0x00, 0x00, 0x00, 0x24, 
  0x8a, 0x12, 0xc1, 0x50, 0x32, 0x41, 0x32, 0x04, 0x32, 0x98, 0x28, 0x2a, 
  0x00, 0x00, 0x00, 0x00, 0x00, 0x00, 0x00, 0x00, 0x00, 0x00, 0x00, 0x00, 
  0x00, 0x00, 0x00, 0x00, 0x00, 0x24, 0x00, 0xc0, 0x00, 0x00, 0x00, 0x00, 
  0x00, 0x03, 0x00, 0x00, 0x00, 0x00, 0x00, 0x00, 0x00, 0x00, 0x00, 0x00, 
  0x00, 0x00, 0x00, 0x00, 0x00, 0x00, 0x00, 0x00, 0x00, 0x00, 0x00, 0x18, 
  0x00, 0x00, 0x00, 0x00, 0x00, 0x00, 0x00, 0x00, 0x00, 0x00, 0x00, 0x00, 
  0x00, 0x00, 0x00, 0x00, 0x00, 0x00, 0x00, 0x00, 0x00, 0x00, 0x00, 0x00, 
  0x00, 0x00, 0x00, 0x00, 0x00, 0x00, 0x00, 0x00, 0x00, 0x00, 0x00, 0x00, 
  0x00, 0x00, 0x00, 0x00, 0x00, 0x00, 0x00, 0x00, 0x00, 0x00, 0x00, 0x00, 
  0x00, 0x00, 0x00, 0x00, 0x00, 0x00, 0x00, 0x00, 0x00, 0x00, 0x80, 0x0f, 
  0x00, 0x00, 0x00, 0x00, 0x00, 0x00, 0x00, 0x00, 0x00, 0x00, 0x00, 0x00, 
  0x00, 0x00, 0x00, 0x00, 0x00, 0x00, 0x00, 0x00, 0x00, 0x00, 0x00, 0x00, 
  0x00, 0x00, 0x00, 0x00, 0x00, 0x08, 0x00, 0x00, 0x00, 0x00, 0x00, 0x00, 
  0x00, 0x00, 0x00, 0x00, 0x00, 0x00, 0x00, 0x00, 0x00, 0x00, 0x00, 0x00, 
  0x00, 0x00, 0x00, 0x00, 0x00, 0x00, 0x00, 0x00, 0x00, 0x00, 0x00, 0x00, 
  0x00, 0x00, 0x00, 0x00, 0x00, 0x00, 0x00, 0x00, 0x00, 0x00, 0x00, 0x00, 
  0x00, 0x00, 0x00, 0x00, 0x00, 0x00, 0x00, 0x00, 0x00, 0x00, 0x00, 0x00, 
  0x00, 0x00, 0x00, 0x00, 0x00, 0x0f, 0x00, 0x00, 0x00, 0x00, 0x00, 0x00, 
  0x00, 0x00, 0x00, 0x00, 0x00, 0x00, 0x00, 0x00, 0x00, 0x00, 0x00, 0x00, 
  0x00, 0x00, 0x00, 0x00, 0x00, 0x00, 0x00, 0x00, 0x00, 0x00, 0x80, 0x00, 
  0x00, 0x00, 0x00, 0x00, 0x00, 0x00, 0x00, 0x00, 0x00, 0x00, 0x00, 0x00, 
  0x00, 0x00, 0x00, 0x00, 0x00, 0x00, 0x00, 0x00, 0x00, 0x00, 0x00, 0x00, 
  0x00, 0x00, 0x00, 0x00, 0x80, 0x00, 0x00, 0x00, 0x00, 0x00, 0x00, 0x00, 
  0x00, 0x00, 0x00, 0x00, 0x00, 0x00, 0x00, 0x00, 0x00, 0x00, 0x00, 0x00, 
  0x00, 0x00, 0x00, 0x00, 0x00, 0x00, 0x00, 0x00, 0x00, 0x00, 0x80, 0x0f, 
  0x00, 0x00, 0x00, 0x00, 0x00, 0x00, 0x00, 0x00, 0x00, 0x00, 0x00, 0x00, 
  0x00, 0x00, 0x00, 0x00, 0x00, 0x00, 0x00, 0x00, 0x00, 0x00, 0x00, 0x00, 
  0x00, 0x00, 0x00, 0x00, 0x00, 0x00, 0x00, 0x00, 0x00, 0x00, 0x00, 0x00, 
  0x00, 0x00, 0x00, 0x00, 0x00, 0x00, 0x00, 0x00, 0x00, 0x00, 0x00, 0x00, 
  0x00, 0x00, 0x00, 0x00, 0x00, 0x00, 0x00, 0x00, 0x00, 0x00, 0x80, 0x04, 
  0x00, 0x00, 0x00, 0x00, 0x00, 0x00, 0x00, 0x00, 0x00, 0x00, 0x00, 0x00, 
  0x00, 0x00, 0x00, 0x00, 0x00, 0x00, 0x00, 0x00, 0x00, 0x00, 0x00, 0x00, 
  0x00, 0x00, 0x00, 0x00, 0x80, 0x0a, 0x00, 0x00, 0x00, 0x00, 0x00, 0x00, 
  0x00, 0x00, 0x00, 0x00, 0x00, 0x00, 0x00, 0x00, 0x00, 0x00, 0x00, 0x00, 
  0x00, 0x00, 0x00, 0x00, 0x00, 0x00, 0x00, 0x00, 0x00, 0x00, 0x80, 0x0a, 
  0x00, 0x00, 0x00, 0x00, 0x00, 0x00, 0x00, 0x00, 0x00, 0x00, 0x00, 0x00, 
  0x00, 0x00, 0x00, 0x00, 0x00, 0x00, 0x00, 0x00, 0x00, 0x00, 0x00, 0x00, 
  0x00, 0x00, 0x00, 0x00, 0x00, 0x09, 0x00, 0x00, 0x00, 0x00, 0x00, 0x00, 
  0x00, 0x00, 0x00, 0x00, 0x00, 0x00, 0x00, 0x00, 0x00, 0x00, 0x00, 0x00, 
  0x00, 0x00, 0x00, 0x00, 0x00, 0x00, 0x00, 0x00, 0x00, 0x00, 0x00, 0x00, 
  0x00, 0x00, 0x00, 0x00, 0x00, 0x00, 0x00, 0x00, 0x00, 0x00, 0x00, 0x00, 
  0x00, 0x00, 0x00, 0x00, 0x00, 0x00, 0x00, 0x00, 0x00, 0x00, 0x00, 0x00, 
  0x00, 0x00, 0x00, 0x00, 0x80, 0x04, 0x00, 0x00, 0x00, 0x00, 0x00, 0x00, 
  0x00, 0x00, 0x00, 0x00, 0x00, 0x00, 0x00, 0x00, 0x00, 0x00, 0x00, 0x00, 
  0x00, 0x00, 0x00, 0x00, 0x00, 0x00, 0x00, 0x00, 0x00, 0x00, 0x80, 0x0a, 
  0x00, 0x00, 0x00, 0x00, 0x00, 0x00, 0x00, 0x00, 0x00, 0x00, 0x00, 0x00, 
  0x00, 0x00, 0x00, 0x00, 0x00, 0x00, 0x00, 0x00, 0x00, 0x00, 0x00, 0x00, 
  0x00, 0x00, 0x00, 0x00, 0x80, 0x0a, 0x00, 0x00, 0x00, 0x00, 0x00, 0x00, 
  0x00, 0x00, 0x00, 0x00, 0x00, 0x00, 0x00, 0x00, 0x00, 0x00, 0x00, 0x00, 
  0x00, 0x00, 0x00, 0x00, 0x00, 0x00, 0x00, 0x00, 0x00, 0x00, 0x00, 0x09, 
  0x00, 0x00, 0x00, 0x00, 0x00, 0x00, 0x00, 0x00, 0x00, 0x00, 0x00, 0x00, 
  0x00, 0x00, 0x00, 0x00, 0x00, 0x00, 0x00, 0x00, 0x00, 0x00, 0x00, 0x00, 
  0x00, 0x00, 0x00, 0x00, 0x00, 0x00, 0x00, 0x00, 0x00, 0x00, 0x00, 0x00, 
  0x00, 0x00, 0x00, 0x00, 0x00, 0x00, 0x00, 0x00, 0x00, 0x00, 0x00, 0x00, 
  0x00, 0x00, 0x00, 0x00, 0x00, 0x00, 0x00, 0x00, 0x00, 0x00, 0x00, 0x00, 
  0x00, 0x00, 0x00, 0x00, 0x00, 0x00, 0x00, 0x00, 0x00, 0x00, 0x00, 0x00, 
  0x00, 0x00, 0x00, 0x00, 0x00, 0x00, 0x00, 0x00, 0x00, 0x00, 0x00, 0x00, 
  0x00, 0x00, 0x00, 0x00, 0x00, 0x00, 0x00, 0x00, 0x00, 0x00, 0x00, 0x00, 
  0x00, 0x00, 0x00, 0x00, 0x00, 0x00, 0x00, 0x00, 0x00, 0x00, 0x00, 0x00, 
  0x00, 0x00, 0x00, 0x00, 0x00, 0x00, 0x00, 0x00, 0x00, 0x00, 0x00, 0x00, 
  };
